<?xml version="1.0" encoding="utf-8"?>
<!-- Generator: Adobe Illustrator 18.0.0, SVG Export Plug-In . SVG Version: 6.00 Build 0)  -->
<!DOCTYPE svg PUBLIC "-//W3C//DTD SVG 1.1//EN" "http://www.w3.org/Graphics/SVG/1.1/DTD/svg11.dtd">
<svg version="1.1"
	 id="Layer_1" xmlns:ns1="http://sozi.baierouge.fr" xmlns:sodipodi="http://sodipodi.sourceforge.net/DTD/sodipodi-0.dtd" xmlns:inkscape="http://www.inkscape.org/namespaces/inkscape" xmlns:svg="http://www.w3.org/2000/svg" xmlns:dc="http://purl.org/dc/elements/1.1/" xmlns:cc="http://web.resource.org/cc/" xmlns:rdf="http://www.w3.org/1999/02/22-rdf-syntax-ns#"
	 xmlns="http://www.w3.org/2000/svg" xmlns:xlink="http://www.w3.org/1999/xlink" x="0px" y="0px" viewBox="0 0 612 792"
	 enable-background="new 0 0 612 792" xml:space="preserve">
<g id="podgląd">
	<path fill="#81C341" d="M333.9,789.9c-0.2-5.9,28.7-13.7,31.9-8.7c2,3.1-18.8,10.6-23.4,10.8C337.8,792.2,334,791.2,333.9,789.9
		L333.9,789.9z M274.1,780.3c-0.2-4.8,2.2-7.3,5.2-5.5c3,1.8,5.6,5.6,5.7,8.5c0.1,2.9-2.3,5.4-5.2,5.5
		C276.8,789,274.2,785.1,274.1,780.3z M312,782.6c-0.2-5.4,12.7-12.4,23-12.5c3.5,0,1.7,3.8-3.9,8.5
		C319.6,788.4,312.3,789.9,312,782.6L312,782.6z M387.3,768.7c-0.1-2.6,9.9-6.6,21.6-12.6c11.6-6,25.1-15.7,29.9-21.6
		c10.6-13,16-13.9,16.4-2.7c0.2,4.6,0.7,9.6-3.1,9.7c-3.8,0.2-21.1,7.2-34,16.9C393.3,777.1,387.6,776.4,387.3,768.7L387.3,768.7z
		 M414.9,769.7c-0.1-3.1,3.6-5.7,8.2-5.9c4.6-0.2,7,2.3,5.3,5.4c-1.7,3.1-5.4,5.8-8.2,5.9C417.4,775.3,415.1,772.8,414.9,769.7z
		 M282.5,767.5c-1.6-2.4,5.6-3.7,15.8-2.8c10.3,0.8,18.6,2.5,18.7,3.7C317.1,772.6,285.2,771.8,282.5,767.5L282.5,767.5z
		 M362.4,760.2c5.6-4.7,12.5-8.7,15.2-8.8c6.8-0.3,57.3-33.9,57.1-38.5c-0.1-2.1,5.9-6.9,13.2-10.7c7.3-3.8,11.4-3.5,11.4-2
		c0.2,4.8-20.5,29.4-24.8,29.6c-2.3,0.1-17.6,12.7-31.2,22.4c-13.6,9.7-25.1,8.8-27.5,7.4s-5.8,0.1-7.5,3.3
		c-1.7,3.2-6.1,5.9-9.6,5.9C355.1,768.8,356.8,764.9,362.4,760.2z M261.3,763.3c-5.2-1.2-9.6-4.3-9.7-6.8c-0.1-2.6,4.7-3.5,10.8-2.2
		c6,1.4,11,4.7,11.1,7.5s-0.5,4.7-1.2,4.3C271.5,765.8,266.6,764.5,261.3,763.3z M327.5,758.9c-0.1-3.1,2.3-5.7,5.2-5.8
		c3-0.1,5.5,2.3,5.6,5.4c0.1,3.1-2.3,5.7-5.2,5.8C330.1,764.5,327.6,762.1,327.5,758.9z M341.8,750.9c-1.9-4.7-9.5-6.4-21-4.7
		c-13.4,2-15.3,1.4-7.7-2.4c9.9-4.9,9.9-5.2-1.6-7.9c-8.1-1.9-11.9-0.2-11.7,5c0.3,11-26.1,8.9-29.9-2.3c-3.3-9.7-59-37.3-58.7-29.2
		c0.1,2.7,19,9.7,30.9,15.5c21.7,10.4,28.5,24,18.5,24.4c-3,0.1-10.3-6.6-12.2-9.6c-1.9-3-8.7-3.9-13.9-3.7
		c-5.2,0.2-14.3-3.8-20.3-9c-5.9-5.2-20.2-16.1-31.6-24.3c-11.5-8.2-20.9-17.6-21-20.8c-0.1-3.2,8.9,1.7,19.9,11.1
		c11,9.3,21.6,15.3,23.5,13.2c1.8-2.1-1.6-7-7.7-11c-15.6-10.3-30.7-25-37.1-36.2c-9.4-16.5,4.4-11.4,18.3,6.8
		c7.1,9.3,24.1,22.9,37.7,30.3c13.6,7.4,29.1,14.5,33.2,17.6c4.1,3,10.8,5.9,14.8,6.3c4,0.5,17.1,1.9,29.1,3.1
		c21.6,2.3,43.7,11.2,50.7,20.5c5.1,6.8,16.4-2.3,11.7-9.4c-2.3-3.5-1.2-4.4,2.6-2.2c4.5,2.7,4.9,6.9,1.1,14.8
		C353.3,759.6,346.1,761.3,341.8,750.9L341.8,750.9z M231.4,752.5c-2.1-3.2-7.3-4.3-11.5-2.4c-4.3,1.9-6.4,1-4.9-1.8
		c1.6-2.9-15.5-8.2-21.8-10c-11.1-3.2-19.5-19.3-19.7-25.2c-0.1-3.5,21.6,8,31.3,16.5c3.9,3.4,14.5,9.3,23.7,13
		c9.1,3.8,17.6,7.3,17.6,9.7C246.3,758.6,235.7,759.2,231.4,752.5z M375.4,737.6c5.4-7.2,5.1-8.7-1.1-8.5c-4.2,0.2-10.6-2.6-14.3-6
		c-5-4.9-5.2-10.5,7-18.9c18.2-12.4,23.9-8.5,24.2-0.9c0.1,3-5.8,7.3-13.2,9.6c-7.4,2.2-7.2,1.2-7.1,3.9c0.3,9.6,7,9.5,21.6-6.1
		c8.1-8.6,14.8-12.9,14.9-9.5c0.1,3.4-6.3,11.6-14.3,18.3c-8,6.6-12,12-8.9,12c3.1,0,13.8-8.1,23.8-17.9c10-9.9,15.3-16.3,11.9-14.4
		c-7.9,4.4-14.9-5.5-7.5-10.6c8.7-6,16.1-27.8,18.8-50.1c1.9-15.5,3-24.4-1.9-21c-5,3.5-5.9-0.8-3.8-17.5
		c1.5-12.1,2.6-27.7,2.4-34.6c-0.2-6.9,2.3-12.7,5.4-12.8c3.3-0.1,4.5,4.6,2.7,11.1c-1.9,7.1-0.4,6.3,3.7,6.1c8-0.3,1.1-55.2-8-63.9
		c-3.3-3.1-6.1-11.1-6.3-17.6c-0.4-12.2-21.6-66.5-43.8-110.5c-16.2-32.1-47-67.3-66.4-70.2c-38.8-5.7-80.7,24.5-97.3,69.8
		c-10.5,28.6-7.3,87.5,5.6,107.2c2.1,3.2,12.1,24.6,12.7,28.1c0.6,3.5,4,7.8,14.4,21.4c16.3,21.2,23.6,20.2,37.5,17.9
		c8.9-1.5,16.4,1.1,19.7,0.8c5.9-0.6,17.6-24.7,17.3-35.5c-0.1-3.3-7.1,2.4-15.7,12.5c-15.1,18.1-29,20.2-23.6,3.7
		c1.6-4.7-0.3-8.2-4.1-8.1c-3.8,0.2-11.5-3.7-17.1-8.6c-6-5.2-5.7,1.3-5.6,5.1c0.1,3.5,0.8,1.8,6.9,5.4c6.1,3.6,11.1,8.6,11.2,11.1
		c0.1,2.5-3.9,7.1-10.3,2.8c-13.8-9.2-32.1-38.9-28-46.3c4.5-8.2,13-0.5,9.9,8.9c-1.9,5.7-0.3,7.3,4.9,5c4.3-1.9,13-1.9,16.9,2.7
		c10.4,12.1,43.2,9.9,42.5-2.8c-0.3-5.4-0.6-19.3,1.8-33.7c6.1-36.9-14.7-87.8-35.7-87.5c-2.4,0-2.8,2.6-0.9,5.6
		c1.9,3,1,5.6-2.1,5.7c-3.1,0.1-6.9,10.4-8.4,22.8c-1.5,12.4-5,22.6-7.7,22.7s-3.7-2.2-2.1-5.1c1.6-3,0.4-6.8-2.8-8.7
		c-3.1-1.9-4-6.4-1.9-10.1c5.7-10.3,5.9-20.9,0.4-20.7c-2.7,0.1-4.8,5.2-4.5,11.4c0.2,6.2-2.3,11.3-5.5,11.4
		c-6.9,0.3-2.1-35.3,5.2-38.5c2.6-1.1,3.6-3.8,2.2-6c-1.4-2.2,2.7-11.2,9-20.2c13.5-18.9,37.6-24.7,55.6-13.5
		c19.4,12,26.6,8.4,12.3-6.3c-10.7-11-16.5-12.7-32.4-9.5c-24.9,4.9-42,17.4-52.5,38.3c-17,36.7-10.6-25.3,39.7-49.4
		c3.7-0.4,9.8,0.5,16.9-0.5c12.1-1.8,21.2,4.1,57.8,37.8c9.2,8.5,29.6,46.2,40.5,75c3.4,8.9,2.7,9.4-4.5,3.7
		c-4.7-3.7-8.6-10.5-8.7-15.2c-0.3-10.7-34.1-67.3-40-67.1c-9.5,0.4-9.3,16.2,0.2,18.4c10.2,2.3,32.1,42.3,43.5,79.4
		c2.1,6.8,6,12.4,8.7,12.3s3.3-3.9,1.5-8.5s-1-8.4,2-8.5c4.9-0.2,12.9,20.7,16.6,41.6c0.8,4.6,3.6,15.6,6.3,24.4
		c3.4,11.5,3,15-1.6,12.4c-3.5-2.1-8.2-13.6-10.5-25.8c-2.3-12.1-5.1-17.7-7.6-19.2c-7.9-4.6-3.5,16.7,7.2,35.3
		c5.5,9.5,5,24,6.2,32.5c1.6,11.2,5.2,13.7-0.8,20.4c-4.3,4.8-7.7,13.3-7.5,19c0.3,7.5-2.6,9.6-10.6,7.8c-7.8-1.8-10.8,0.3-10.6,7.2
		c0.3,8.4,1.5,8.7,9,1.7c7.5-6.9,8.3-6.8,6.2,0.5c-1.4,4.7-6.8,8.3-12,8c-5.2-0.3-13.1,6.6-17.6,15.5c-9.5,18.6-34.6,26.1-65.3,24.8
		c-46.1-2-107-62.8-116-115.9c-2-11.9-1.5-12.5,3.7-4.3c6.5,10.4,2.3,20.2,7.1,20c2.4-0.1,8.6,12.7,17.4,27.6
		c24.5,41.7,52.7,60.2,92.9,61.1c31.9,0.7,34.4,3,51.5-16.6c9.8-11.2,17.6-25.4,17.4-31.6c-0.3-8.5-4.4-5.2-17.4,13.8
		c-14.1,20.7-21.1,22.4-38.4,24.5c-11.5,1.4-26.5,1.4-33.5-0.2c-16.1-3.5-49.1-31.3-69.8-58.7c-19.8-26.3-21.5-39.3-2.4-17.8
		c7.7,8.7,14.1,17.6,14.2,19.8c0.2,7.5,37.4,43.3,41,39.4c1.9-2.1,3.6-1.1,3.7,2.4c0.3,9.1,36.9,13.6,45.6,5.6
		c3.9-3.7,11.6-5,17-3.1c6.7,2.4,8.5,1.5,5.7-2.9c-4.9-7.6-23.5-7.9-25.8-0.4c-2.2,7-49-7.2-60.2-18.6c-8.4-8.5-1-7.3,11.8-0.9
		c21.8,10.9,43.6,10.8,54.6-0.3c6.3-6.4,10.1-7.6,10.2-3.3c0.1,3.7,2.6,5.1,5.5,3.1c2.9-2,5.8-3.2,5.7-6.3c-0.1-3.1-2.6-4-5.5-1.9
		c-5.7,4-7.7-4-2.4-9.8c6.9-7.7,17.6,9.1,12.6,19.7c-8.5,18.2,0,16.5,9.7-1.9c5.1-9.7,12.4-17.7,16.2-17.8c3.8-0.2,6.9-2.8,6.8-5.9
		s8.6-14.1,11.7-14.3c3.3-0.1-1.7,13-3.5,19.5c-1.7,6.3-0.7,11.2,2.3,11.1c7.1-0.3,13.1-32,10.7-56.5c-1.5-21.6-3.2-22.2-12.8-30.4
		c-3.2,2.2-5.6-3.8-5.9-14.8c-0.7-23.3-25-82.5-39.4-99.7L339,371l9.3,19.3c5.1,10.6,11.5,23,14.1,27.7c5.6,9.7,13.1,31.5,18.6,67.9
		c7.6,50.4-18.7,3.2-16.9,71.4c0.3,10-1.9,18.3-4.9,18.4s-3.8-2.8-1.8-6.4c2.4-4.3,1.3-5-3-2c-5.1,3.5-5.7,1.4-2.5-8.9
		c5.2-16.9-1.7-95.5-8.3-101.8c-2.8-2.6-3.6,2.4-2,11.5c4.5,25.4-8.4,13.2-9.3-10.2c-0.3-8.3-0.7-6.4-3.2-17.9
		c-5.2-23.7-1.2-27.8,7.2-7.3c3.1,7.6,9.3,13.6,13.9,13.5c6.3-0.2,8.5,6.3,9.2,27.3c0.5,15.2,6.1,29.9,9.2,31.8
		c5.3,3.1,0.2-31-7.3-62.8c-3.6-15.4-20.3-46.4-36-66.7c-10.6-13.7-11.5-16.9-4.2-14.3c5.8,2.1,7.9,1.1,5.7-2.4
		c-5.3-8.2-40.4-10.6-51-3.9c-7.1,4.5-5.7,4,8.1,3.1c20.4-1.4,37.8,18.4,56.9,54.1c13,24.2,14.1,28.1,8,28.3
		c-2.3,0.1-7.7-7.5-12.1-16.9c-5.9-12.7-9.1-15.1-12.4-9.3c-3.6,6.3-4.5,6.2-5.4-0.6c-0.5-4.6-0.7-10.4-0.4-13
		c0.3-2.5-4.8-11.8-11.3-20.7c-9.7-13-10.6-9.6-25.2-7.9c-24.8,2.7-13.4,0.2-23.2,13.4c-7.9,10.6-4.7,10.5,14.2-0.6
		c13.5-7.9,15.8-7.9,23.7,0.5c15.5,16.5,24.5,41.5,27.9,77.2c2.4,25,4,35.7-0.7,35.9c-5,0.2-5,1.8-0.1,6.5c4.9,4.7,8.3,4.5,13.9-0.7
		c28.9-13-12.9,43.6-3.4,30.2c-3.8,9.4-9.6,17.4-12.2,21.4c-5.2,8.4-54.8,18.3-55.1,11c-0.5-8.9-32.2-39.7-36.4-35.5
		c-2.3,2.3-2.8,1.5-1.1-1.9c1.7-3.4-2.9-11.1-7.7-20c-11.6-21-14.2-31.5-17.8-71.6c-5.6-62.4,29.1-121.2,78.4-136.2
		c18.6-5.7,26.1-5.1,46.5,3.3c13.4,5.5,22.7,10.9,24.2,9.2c1.5-1.6,1.6-3.6,0.4-4.3c-26.4-15.1-38.6-21.6-61-20.7
		c-23.7,0.9-29.6,3.8-51.1,24.9c-16.5,16.2-27.2,23.2-27.4,17.2c-0.2-4.9,15.6-20.7,31.5-32.6c27.3-20.4,30.9-21.5,61.6-19.8
		c26.3,1.4,33.4,0,37.1-7.3c4.1-8.2,5.9-8.2,19.4,0.2c8.2,5.1,16.2,7.9,17.7,6.2c4-4.4,31.6,13.3,31.8,19.9
		c0.7,19.5-10.5-12.5-22.9,1.3c-7.5,8.4-6.1,11.4,16,34.3c18.9,19.5,27.7,35.2,39.8,71.1c8.6,25.3,16.3,52.1,16.4,55.7
		c0.1,3.7,2.3,6.6,4.7,6.5c6.3-0.3,4.7-21.4-2-29.6c-3.1-3.7-7.6-14.3-5.9-14.4c1.7-0.1,1.6-3.8-4.6-17.5
		c-10.6-23.3-13.6-33.5-2-31.8c4.6,0.7,6.4-0.5-2.4-24.1c-4.1-10.9-4-10.9,4.8-0.5c10.1,11.9,12.2,28.3,4.3,33.8
		c-3.3,2.3-2.3,9,2.8,18.4c10.9,20.1,22.2,60.4,23.8,84.3c0.8,10.9,3.6,19.7,6.3,19.6c5.7-0.2-2-54.1-10.6-75
		c-2.8-6.9-6.1-15.3-7.9-22.6c-1.1-4.6,2.4-1.9,0.1-7.2c-6.7-15.8,2.1-15.1-1.2-24.7c-7.2-21.1,15.2,6.6,34.1,44.6
		c26.5,53.2,19.2,57.5-8.2,4.8c-15-33.4-17.1-31.7-9.2-5.6c17,36.4,8.8,43.3,12.7,53.8c1.7,4.5,11.8,9.1,15.2,19.8
		c4.7,14.6,5.7,15.6,3.8,3.9c-1.4-8.5-0.5-16.8,1.7-18.4c6.3-4.4,23.8,51,25.7,93.7c-11.9,96-25.3,27.1-18.9,69.9
		c0.2,6.4-7.5,12.2-14.8,22.8c-7.2,10.6-11.2,19.1-8.8,19c7.5-0.5,15.5-8.6,18.9-19.2c1.9-5.9,6-8.7,9.6-6.6
		c5.8,3.4-37.2,54.3-65.8,77.8c-10.3,8.4-10.3,8.3-1.5-3.3c11.4-15,6.8-16.4-4.7-11.3c-9.7,4.3-2.5-7.7,11.9-26.3
		c4.3-5.6,6.1-11.8,4.1-13.7c-2.1-2-7.4,1.4-11.8,7.5c-9,12.4-8.4,9.7,4.5-22.7c11.1-27.8,11.1-36.1,11.1-59.4c0-10,5-22.8,7.7-22.9
		c7-0.3,1.7,52.5-7.2,72c-6.8,15-6.6,17.4,1.9,25.8c8.9,8.7,8.9,9.7,0.3,16.9c-11.3,9.4-11.7,14.9-0.9,14.5c4.5-0.2,8-3.9,7.8-8.2
		s2.7-9.5,6.4-11.5c5.3-2.8,5.2-4.2-0.2-6.5c-4.9-2.1-3.1-8.4,6.1-21.9c8.2-12,11.6-22.8,9.3-29.4c-3-8.6-2.6-9,2.4-2.3
		c5.3,7.1,6.1,6.8,5.9-1.6c-0.2-5.4-2.7-9.7-5.7-9.6c-3,0.1-5.5-2.1-5.6-4.9c-0.1-2.8,4.1-4.6,9.3-4c5.2,0.6,6.3,0.1,2.5-1.1
		c-9.9-3.1-10-79.7,0-80c9.3-0.3,8.5-18.8-0.2-15.3c-3.7,1.5-9.9-4.9-13.9-14.4c-7.1-16.7-7.2-16.5-3.6,8
		c3.6,24.3,3.4,24.7-4.9,11.4c-8.3-13.2-9.4-7.3-6.6,19.7c4.2,39.3,6.3,36.2,10.5,13.9c5.7-43.2,4.6-7.1,3.1,39.1
		c-0.6,49.2-2.4,60.8-11.2,70.5l-10.5,11.6l5.7-17c9.5-28.6,12.7-76.8,5.2-79.5c-3.6-1.2-7.4-14.1-8.4-28.6c-1-14.4-2.8-30-4-34.6
		c-1.2-4.6-4.2-16.4-6.8-26.4c-2.6-9.9-6.7-17.9-9.1-17.9c-2.4,0.1-1.7,7.5,1.6,16.4s5.5,23.3,4.8,32c-1,11.7-4.1,5.1-12-24.9
		c-5.9-22.4-8.9-30.9-7.3-33.7s-0.9-20.3-4.1-20.2c-3.1,0.1-6-8.4-6.4-19c-0.3-10.6-2.9-20.6-5.6-22.1c-2.7-1.6-6.8-9.6-9.1-17.9
		c-5.4-19.4-51.9-81.2-70.3-90.5c-20.3-10.3-26.3-0.2-6.4,11c9.1,5.1,15.5,11.4,14.1,14c-1.4,2.6,1.2,4.5,5.9,4.3
		c4.6-0.2,8.5,1.6,8.6,3.9c0.1,2.3,8.4,12.7,18.4,23.2c10,10.4,19.3,22.7,20.6,27.2c1.3,4.5,7,23.3,12.6,41.7
		c5.6,18.4,14.4,36.7,13.4,40.2s-3.6,10.4-0.3,12.3c3.2,1.9,5.9,6.1,6,9.4c0.1,3.8-2.9,3.5-8.2-0.7c-4.6-3.7-8.5-10.6-8.6-15.4
		c-0.2-4.8-6.5-23.1-13.4-36.9c-9.5-7.2-16.3-26.3-17.6-36.1c-6.4-20.9,32,51.5,18.8,13.3c-2.4-7.6-7.5-18.8-11.3-24.8
		c-5.8-9-7.9-9.5-11.8-2.8c-5.7,9.7-0.5,19.6,24.1,67.2c2.7,5.2,5.9,23.5,6.1,28.8c0.2,5.3,6.6,14.6,14.3,20.5
		c9.9,7.7,15.2,18.6,18.2,37.3c2.6,16.4,2.2,26.5-1.1,26.7c-3,0.1-5.6-4.2-5.7-9.6c-0.9-29.2-3.7-40.6-11.8-48.4
		c-5-4.8-10.5-7.1-12.2-5.2c-1.7,1.9,0.3,5.5,4.5,8c16.6,13,19.3,87,4.3,79.9c-3.7-0.6-6.7,1.4-6.6,4.5c0.1,3.1,2.6,5.5,5.6,5.4
		s3.4,13.2,3.6,19.6c0.5,15.9-9.6,63.6-16.3,72.9c-3,4.2-3.2,6.7-0.5,5.6c4.9-1.9,7.8,2.1,8,11c0.2,5.5-40.8,35.2-55.3,41.3
		c-8.6,3.6-9.1,2.9-3.5-4.5v0L375.4,737.6z M538,578.4c2.1-3.7,1.2-12.9-1.8-20.4s-4.2-15.3-2.4-17.2c10.8-12-26.8,8.1-3.1,22
		c3.1,1.8,4.3,5.7,2.6,8.7c-1.6,3-5.6,3.9-8.9,2c-3.5-2.1-4.4-0.4-2.2,4.2c2,4.2,5.3,12,7.3,17.3c2,5.3,4.7,9.6,6.1,9.6
		c1.3,0,1.6-4.5,0.5-9.8C534.5,593.2,536.5,581,538,578.4L538,578.4z M401.6,363.6c3.2-3.3,1.3-3.7-4.8-1.2c-7.4,3.1-9.2,2-7.1-4.2
		c1.6-4.9-4.3-15.3-14.4-25c-21.7-20.9-26.6-16.7-8.3,7c7.7,9.9,15.8,23,18.1,28.9c2.3,6.1,5.7,8.4,7.8,5.3
		C394.8,371.4,398.8,366.5,401.6,363.6z M389.1,293.5c1.4,0,4-4.5,2.2-7.2c-1.7-2.7-7.7-3.5-13.3-1.8s-11.8,0.5-13.9-2.8
		c-2.1-3.3-6.7-5.8-10.3-5.6c-3.5,0.2-0.2,5.1,7.5,10.8c7.7,5.7,14.3,11.3,18.2,9.6C383.4,294.9,387.8,293.5,389.1,293.5
		L389.1,293.5z M329.1,725.3c-1.9-3,1.5-5.7,7.6-5.9c6.1-0.2,11.2,2.1,11.3,5.2c0.1,3.1-3.3,5.7-7.6,5.9
		C336.1,730.6,331,728.3,329.1,725.3z M497.8,721.2c3.6-4.9,9.9-8.9,14-9.1c4.1-0.2,6.8-2.5,5.9-5.2c-1.6-5.1,20.9-29.5,27.4-29.7
		c6.7-0.3-33.4,44.2-43.8,48.5C492.7,729.3,492.2,728.7,497.8,721.2z M301.4,714.8c-5.3-8.2-3.7-8.9,28.2-13.2
		c30.6-4.1,35.3-2.5,16.4,5.6C321,717.8,305.1,720.5,301.4,714.8z M262,711.6c-6.8-2.5-6.8-6.8-6.8-8.5c-0.2-6.1,19.8-3.5,30.2,4
		C298,716.3,282.4,719.2,262,711.6z M233.2,692.6c-7.6-8.8-1.9-11,10-3.7c4.5,2.8,5.4,5.9,2.3,8.2C242.5,699,237,697,233.2,692.6z
		 M268.3,691.6c-9-3.5-24.7-13.2-34.9-21.4c-11.1-9-18.9-10.5-18.1-5.8c0.7,4.3,1.2,12.5,1,18.3c-0.2,8.8-1.7,9.4-8.9,3.7
		c-6.4-5.1-7-8-2.3-11.3c4.5-3.1,1.7-8.6-9.3-18.4c-8.6-7.7-13.9-14-11.7-14.1c2.1-0.1-1.6-6.9-8.3-15.1
		c-10.3-12.5-28.5-47-28.8-54.2c0-1.2,2.3-2.2,5.2-2.3s7.1,6.2,9.2,14.1s13,27,24,42.5c24.7,35,23.3,33.5,27.2,29.2
		c1.7-1.9-5-15.2-15.1-29.5c-23.2-33-40.9-73.3-32.3-73.6c2.4-0.1,16.4,28.7,20.1,41.2c0.9,3,6.4,12,12.4,20
		c5.9,8,10.8,16.2,10.8,18.2c0.2,7.1,17.7,18.4,22.4,15.1c2.6-1.8,11,1.5,18.7,7.3c15.2,11.5,25.9,13.4,25.6,4.5
		c-0.2-6.3,18.9-5.3,25.6,1.2c2.4,2.3-0.5,3.6-6.5,2.8c-6-0.8-10.8,1-10.7,4.1c0.2,5.9,2.1,6.4,27.3,7c14.2,0.3,14.9,1.1,5.6,5.6
		c-8.9,4.4-7.8,5.2,7,4.9c9.7-0.2,17.7,2.4,17.8,5.7c0.2,7.1-34.1,2.3-37.2-5.3c-1.1-2.7-7.2-4.6-13.7-4.3c-8.6,0.4-9.7,1.7-4.2,5.1
		C299.4,694.9,285.6,698.2,268.3,691.6L268.3,691.6z M278.8,682.6c2.6-4.7-7.6-10.6-44-25.6c-3-1.2,0.5,4.1,8,11.8
		c7.4,7.7,15.3,12.8,17.6,11.2c2.3-1.6,5.7-0.4,7.7,2.7C272.5,689.7,274.9,689.7,278.8,682.6z M378.4,683.6
		c9.3-8.1,16.8-18.5,16.6-23.1c-0.2-5.6,3.1-7.4,9.8-5.5c7.8,2.3,11.2-1.3,15.1-15.7c4.1-15.1,5.2-16.2,6-5.7
		c0.5,7.1-2.2,19.8-6.1,28.3c-8.7,19-29,40.4-29.3,30.8c-0.1-4-2.9-4.9-6.8-2.2C367.4,702.2,363.2,696.8,378.4,683.6L378.4,683.6z
		 M406.4,672c7-10.6,6.9-10.9-1.6-3.5c-5,4.4-9.1,10.7-9,13.9s0.9,4.8,1.6,3.5C398.2,684.6,402.3,678.4,406.4,672z M442.1,681.4
		c-2.4-8.5-3.6-19.6-0.5-23c3-3.4,5.2-8.5,5-16.4c-0.2-7.8,1.8-18.1,4.5-22.9c8.5-14.8,7.1,22.9-1.5,41.7
		c-6.1,13.3-1.3,17.4,4.3,20.7C463.7,687.3,448.4,703.9,442.1,681.4z M346.7,685.4c-0.1-3.1-3.3-5.5-7.1-5.3
		c-8.2,0.3-10.3-21.6-2.1-23.2c3.1-0.6,8-1.6,11-2.1c12.2-2.3,29.7-15.8,29.4-25c-0.4-11.3,6.4-12.7,22.5-4.6
		c8.2,4.2,10.3,4.1,7.4-0.3c-4.2-6.5,3.2-42.4,11.3-52c3.1-3.7,3.9-2.4,2.1,3.5c-1.6,5.1-3.3,22.8-6.3,41.9c-3,19.3-7.3,32-9.6,28.4
		c-3.2-4.9-5-4.9-7.9,0.2c-2,3.7-6.9,5.6-10.8,4.2c-3.9-1.4-12.3,2.9-18.6,9.6c-8.7,9-13.3,7.3-16.6,2.2c-3.1-4.8-5.4-5-7.9-0.5
		c-1.9,3.5-1.4,6.3,1.1,6.2c2.5-0.1,5.1,4.9,5.7,11c0.7,6.1,0.1,11.2-1.2,11.3C347.9,690.9,346.8,688.4,346.7,685.4L346.7,685.4
		L346.7,685.4z M395.9,629.2c-2.1-3.3-5.2-2.4-7.9,2.4c-7,12.4-4.9,18.2,3.6,10.3C395.9,637.9,397.9,632.2,395.9,629.2L395.9,629.2z
		 M357.3,681.5c-0.2-4.1,23-22,28-22.5c2.1-0.2,2.7,3.1,1.3,7.4C384.1,674.2,357.6,687.5,357.3,681.5L357.3,681.5z M310.8,664.3
		c-1.9-3-1.1-5.6,1.9-5.7c3-0.1,7,2.3,8.9,5.2c1.9,3,1.1,5.6-1.9,5.7C316.7,669.7,312.7,667.3,310.8,664.3z M458.1,664.4
		c-0.1-3.1,2.2-7.3,5.1-9.3c2.9-2,5.4-1.2,5.5,1.9c0.1,3.1-2.2,7.3-5.1,9.3C460.6,668.4,458.2,667.5,458.1,664.4z M130.6,640.5
		c-13.7-15.4-1.9-17,1.1-15.3c3,1.8,30.1,47.1,30.2,50c0.1,2.9-7,0.9-9.9,1C149,676.3,130.8,645.3,130.6,640.5z M178.9,657.4
		c-47-60.9-58.1-79.5-48-79.9c2.7-0.1,10,2.9,15.6,14.3c1.1,2.3,1.8,10.6,2.9,12.8c4.4,8.5,8.5,15.5,9.9,16.7
		c9.6,8.2,34.9,44.6,32.7,47C190.6,669.8,184.7,664.9,178.9,657.4z M543.1,661.3c-3.1-4.5,15.9-35.5,17.9-33.7
		c0.2,0.2-7,53.6-8.9,27.2c-0.4-5.6-6.7,3.3-8.6,5.9C543.4,661,543.2,661.2,543.1,661.3z M253.4,647.1c-3.8-4.4-9.1-6.6-11.7-4.8
		s-4.8-0.7-5-5.5c-0.4-11.5,7.3-12.2,26.3,3.6c8.9,7.3,6.7,14.4,3.3,14.5C263.1,655,257.2,651.5,253.4,647.1L253.4,647.1z
		 M533.3,647.5c0-1.2,10.5-19.1,14.9-23.2c6.7-6.2,0.5,7.8-2.1,15.6C543.4,647.9,533.5,653.8,533.3,647.5z M464.5,636.9
		c6.3-26.4,9-61.7,3.4-57.8c-3.2,2.3-5,9.7-4.7,19s-3.6,9-6.1,7.5c-7.5-4.4-2-42.6,6.2-43c4.1-0.2,7.3-5.3,7.1-11.5
		s1.6-11.3,4.1-11.4c4.3-0.2,5.1,47.5,1.1,70c-1.1,6.2-2,17-2,23.9c0,7-2.6,12.7-5.7,12.9C464.8,646.7,463.3,642.3,464.5,636.9
		L464.5,636.9z M147.5,640.4c-2.1-2-3.8-6.2-3.9-9.4c-0.1-3.5,2.4-3.3,6.4,0.6c3.7,3.5,5.4,7.7,3.9,9.4
		C152.4,642.6,149.5,642.4,147.5,640.4z M200.6,601.7c-8.5-12.6-15.7-27.1-15.8-32.1c-0.2-5-2.1-10.8-4.2-12.9
		c-2.1-2.1-4.6-7.8-5.5-12.7c-2.4-14,11.7,2.3,26.8,35.3c7.6,16.7,13.4,28.7,19.3,33.9c8.4,8,15.9,21.4,3.3,9.7
		C220.4,623.1,209.2,614.3,200.6,601.7z M129.4,611.2c-1.9-3-0.9-5.6,2.2-5.7c3.1-0.1,5.8,2.3,5.9,5.4s-0.9,5.6-2.2,5.7
		C134,616.6,131.3,614.2,129.4,611.2z M553.2,595.9c-0.3-9.8,2.3-28.6,7.2-21c1.8,2.8-2,37.2-5,39.3S553.3,600.7,553.2,595.9
		L553.2,595.9z M113,601c-1.8-2.8-0.9-6.8,2.1-8.8c3-2.1,5.5,0.2,5.7,5C121.1,607,117.9,608.6,113,601L113,601z M278.5,586
		c-33.5-5.2-44.9-21.1-65.2-59.1c-6.8-11.8-15.8-16.4-17.7-13.1c-5.6,10.3-12.1,7.1-15.3-7.5c-1.7-7.7-1-14,1.6-14.1
		c8.7-0.3-4,10.8,7.6,10.4c6.8-0.3,3.1-7.7-4.3-25.9c-3.1-7.8-3-12.5-7.6-12.4c-6.4,0.2-7.6-3.3-5.2-15.2c1.7-8.5,5.2-16.5,7.7-17.6
		c7.3-3.3,4.7-5.9-3.4-5.6c-7.8,0.3-14.2,12-13.6,33.4c0.2,7-2.1,12.7-5,12.8s-4.7-4.2-3.9-9.7c7.1-47.2,9.3-52.2,18.6-50.1
		c5.5,1.2,9.4-1,9.4-5.2c-0.3-12,22-67.1,27.2-67.3c7.2-0.3,6,8.8-2.3,16.4c-6.7,6.2-16,46.6-11.6,50.2c1,0.9-1.7,4.1-6,7.1
		c-4.5,3.2-5.2,5.6-1.6,5.5c3.7-0.1,6.3,7.6,6.3,18.1c-1.2,46.9,21.7,91.2,51.2,119.4c7.5,7.3,12.7,13.8,21.6,18.3
		c10,5,20.3,2.1,32,3c31.4,4.7,37.6-37.7,45.6-25.4c1.8,2.8-3.1,9-10.3,17.6c-7.1,8.5-11,15.5-8.7,15.5c2.3,0,0.7,2.5-3.7,5.7
		c-10,7.2-7.8,7.5-43.3-5L278.5,586z M183,440.3c-1.6-3.8-2.8-0.6-2.5,7.1c0.3,7.7,1.6,10.8,3,6.9
		C184.8,450.4,184.6,444.1,183,440.3z M103.8,570.6c-7.4-18.3-17.1-65.1-10.8-65.3c4.9-0.2,23.1,73.2,19.2,77.6
		C110.9,584.3,107.1,578.7,103.8,570.6z M374,565.5c-5.2-8.9,1.4-46.4,8.3-46.7c5.2-0.2,19.5-3.1,16.8,8.3c-2,8.5-16,25.4-14.6,29
		C387.2,563.3,377.8,571.8,374,565.5z M554.9,557.6c-3.5-10.4-12.4-50.2-13.2-59.7c-1.3-13.9-22.3-70.5-36.9-98.1
		c-7.5-14.3-25-38.3-38.9-53.3s-25.3-30.5-25.3-34.2c0-3.8,11.2,5.4,24.9,20.2c13.7,14.9,24.9,24,24.8,20.4
		c-0.1-3.7-2.6-8.2-5.6-9.9c-3-1.8-5.6-5.9-5.7-9.2c-0.1-3.8,2.9-3.5,8.1,0.7c4.6,3.7,8.5,10.3,8.6,14.7c0.2,4.4,2.3,6.7,4.7,5
		c2.4-1.7,10.2,6.7,17.2,18.6c7,11.9,14.6,21.6,16.9,21.5c2.3-0.1,7.6,5.9,11.7,13.4c8.6,15.3,4,2.6,20.1,32
		c4.4,8.1,5.7,14.8,2.8,14.9c-2.9,0.1-6.3-1.1-8.3-6.4c-5-13.1-65.9-92.4-68.7-89.2c-1.2,1.4,2.7,9.5,8.8,17.9
		c6.1,8.5,15.4,22.3,20.7,30.6c5.3,8.3,11.6,13.9,13.9,12.2c2.4-1.6,8.3,10.6,12.5,23.4c4.2,12.9,10.4,25.1,13.9,27.2
		c4.5,2.8,4.3,4-0.6,4.2c-6.4,0.3-12.1-9.2-21-34.9c-2-5.7-4.7-9.2-6.1-7.7c-1.4,1.5,3.1,22.5,10,46.6c6.9,24.1,17.6,58.1,19,69.6
		C565.5,568.9,559.4,571.1,554.9,557.6L554.9,557.6z M123.3,568.3c-2-1.9-3.7-8.7-3.9-15.1c-0.2-9.6,0.7-10.3,5.3-3.5
		c4.7,6.8,4.2,8.1,6.7-3l3.1-13.4L144,544c9.2,15.8,9.9,21.3,2.8,21.6c-3,0.1-5.6-3.7-5.7-8.5c-0.2-4.8-2.7-7.1-5.7-5
		s-4,5.9-2.3,8.4C136.9,566.3,128.3,573,123.3,568.3L123.3,568.3z M156.6,547c-2.5-7.6-8.4-23.8-9.7-33.9
		c-0.9-6.9-2.8-12.5-4.3-12.4c-1.5,0-4.1-20-5.9-44.6c-1.7-24.6-1.2-44.8,1.2-44.9c2.4-0.1,5.4,17.2,6.7,38.5
		c2.1,34.1,11,65.5,21.2,90.3c1.8,4.3,0.5,8-2.7,8.2C159.8,548.3,156.9,547.8,156.6,547L156.6,547z M126.1,519.6
		c-1.4-5.4-1.2-18.6,0.4-29.4c1.6-11,3.4-14.4,4-7.8c0.6,6.5,2.9,19.7,5.1,29.2C139.7,529.6,130.7,537.3,126.1,519.6L126.1,519.6z
		 M165.7,513.8c-3.7-7.6-4.5-13.9-2-14c4.5-0.2,13.4,22.5,10.2,26C173,526.8,169.3,521.4,165.7,513.8z M110.3,527.4
		c-1.4-8.3-2.4-21.2-3.6-28.1c-2.8-16.9-2.2-20.8,2.8-16.2c3.6,3.3,5.8,14.6,4.9,25c-0.5,5.4-0.5,13.4-0.6,19.7
		C113.6,540.8,112.5,539.9,110.3,527.4L110.3,527.4z M265.6,506.5c-14.6-1.9-12-22.8-5.9-26.9c2.9-2,2.6-5.8,1.6-13.3
		c-1.4-10,4.9-13.5,11.6-12.7c5,0.7,5.1,2.7,7.2-1c9.3-16.9-19.5-1.2-3.7-34.7c8.6-18.1,12.4-17.7,22.8,2.6
		c35.4,56.4-16.6,98.2-6.8,80.3c3.2-5.7-11.8-18.3-19.8-18c-8.1,0.3-2.4,9.8,6.5,13c4.5,1.6,5.4,6.8,5.4,9.6
		C287.5,528,273.6,492.1,265.6,506.5L265.6,506.5z M297.5,448.3c-4.8-37.9-11.1-43.9-18-17.4c-2.6,10.1-1.6,11.9,5,9
		c6.2-2.7,8.5-0.1,8.8,10c0.6,18.3-5.8,25.7-16,16c-15.1-4.2-8.9,11.8,10,11C300.6,476.3,301,475.2,297.5,448.3z M561.5,490.3
		c1.7,1.6,7.3,14.7,9.5,29.3c2.6,17.1,1.5,36,0.7,36.9C569,559.5,544.8,474.3,561.5,490.3z M158.3,486.4c-0.3-9.8,2.9-11.4,7.8-3.8
		c1.8,2.8,0.9,6.8-2.1,8.8S158.5,491.2,158.3,486.4z M87.6,475.4c-0.3-10.4-0.4-39.8,2.7-37.9c5.8,3.4,7.5,45.2,1.5,51.9
		C89.8,491.7,87.9,485.3,87.6,475.4L87.6,475.4z M231.9,479.5c1.6-2.9,0.3-6-2.8-7c-6.6-2-12.7-51.6-8.6-63.5
		c-0.3-6.9,3.1-19.4,6.2-19.5c3.4-0.1,5.3,13.3,4.8,34.8c-0.5,23.8,1.9,39,7.4,47.3c7.3,11,7.2,12.3-0.9,12.7
		C233.1,484.6,230.3,482.4,231.9,479.5z M69.9,455.6c3.4-5.3,10.1-2.8,6.2,16.2c-1.4,7.2-2.7,18.4-4.8,16.4
		C69.4,481.6,66.9,460.3,69.9,455.6L69.9,455.6z M115,471.4c-0.4-5.9,0.7-9.2,2.6-7.5c1.9,1.8,2.2,6.6,0.8,10.7
		C116.8,479.2,115.5,477.9,115,471.4z M121.8,458c-2.6-5.3-5.3-20.5-6-33.7c-0.8-14.5-4.5-26.1-9.4-29c-6.6-4-6.4-4.9,1.4-5.3
		c8.5-0.4,11.7-6.8,9.5-18.7c-0.4-2.3,1.9-4.3,5.2-4.4s4.6,3.8,3,8.8c-1.7,5-4.3,15.2-5.8,22.7c9.9,6.3,14.3,8.2,9.4,18.6
		c-3.4,7.2-4.6,21.5-2.6,31.8C130.4,469.6,128.9,472.7,121.8,458L121.8,458z M237.5,437.3c-1.2-10.9,6.8-12.7,13.5-6.2
		c2.2,2.1,5.2,19.7,3.9,28.4c-1.1,7.1-6,5.8-8.3,5.9C242.5,465.6,244.1,441.9,237.5,437.3L237.5,437.3z M69.8,433.5
		c-2.3-23.4-0.9-38.4,4-44.1c2.3-2.7,3.4,7.4,2.5,22.3C74.3,446.6,71.9,454.6,69.8,433.5L69.8,433.5z M100.6,433
		c-2.5-8.7-3.4-17.3-1.9-19c4.2-4.7,10.1,13.1,8.2,24.6C105.7,446.2,104,444.7,100.6,433z M148.3,427.6c-1.9-3-0.9-5.6,2.2-5.7
		c3.1-0.1,5.8,2.3,5.9,5.4c0.1,3.1-0.9,5.6-2.2,5.7C152.9,433,150.3,430.5,148.3,427.6z M48.9,441.4c-0.1-2.9,1.7-29.7,4.7-31.7
		c2.9-2,5,2.3,5.1,7.1c0.2,4.8-1.2,29.6-4.2,29.7C51.5,446.5,49,444.2,48.9,441.4L48.9,441.4z M85.4,407.3
		c-0.3-9.4,1.6-15.8,4.2-14.3c4.5,2.6,3,31.2-1.6,31.3C86.9,424.3,85.7,416.7,85.4,407.3L85.4,407.3z M138.9,403.6
		c-3-16.9-0.2-33,7-48.5c9.6-20.7,10.2-24.5,3.7-24.2c-2.5,0.1-8.3,8.6-11.9,17.2c-3.7,8.9-7.6,12.7-9.1,8.8
		c-3.9-10.1,17-37.8,23.7-31.4c3.5,3.3,7.8,0.1,12.2-9.2c3.7-7.9,8.8-14.5,11.3-14.6c7-0.3,5.6,8.9-2.6,16.5
		c-10.2,9.5-23.8,43.6-25.7,64.3C146.1,398.5,140.4,412.1,138.9,403.6z M154.3,389.5c7.9-48.2,57.1-119.2,90.4-132
		c22.6-8.7,20.7-13.2-3.1-7.3c-9.5,2.4-27.5,15.2-36.5,26c-16.8,19.8-24.8,24.4-25.2,14.3c-0.1-3.1,3.5-5.7,7.9-5.9
		c4.5-0.2,8-2.8,7.9-5.9c-0.5-15.2-23.6,3.6-29,23.6c-1.7,6.2-6.6,11.5-11,11.6c-10.5,0.4-3.8-13.4,19-39.3
		c13.9-15.7,15.2-19.1,6.6-17c-11.1,2.6-45.2,53.1-58.1,86.1c-4.1,10.5-8.8,17.9-10.4,16.4s0.5-10.1,4.5-19
		c4.1-8.9,7.9-18.8,8.5-21.9c0.5-3.1,7.5-14.4,14.3-23.4s12.2-19.5,12.1-23.4c-0.1-3.9,5.1-10.1,11.7-13.7
		c6.6-3.7,18.1-14.8,28.2-21.8c48-32.6-47.5,49,37.2-7.4c18.9-12.5,30.8-22.7,26.3-22.6c-7.1,0.2-7.2-0.4-0.2-5.5
		c6.6-4.8,6.1-5.8-2.9-5.9c-8.9-0.1-8.2-1.5,3.9-7.6c8.1-4.1,12.9-9.3,10.6-11.5c-2.3-2.2,0.1-2.5,5.3-0.7c5.8,2.1,9.3,0.7,9.2-3.7
		c-0.2-5.1,8.7-6.5,33.6-5.3c65.8,3.2-21.2-15,19.3-16.6c0.5,0,53.5,16.1,55.7,21.7c4.5,11.3,3.8,11.6-12,6.6
		c-12.7-4-17.6-3.6-20.7,2c-2.8,5-8.9,6.1-19.6,3.5c-15-3.7-45.7-1.5-73,5c-4.3,1-2.6,12.4,3.1,21.1c2.3,3.5,1.2,7.9-2.5,9.7
		c-3.7,1.9,1.8,2.6,12.2,1.6c12.4-1.2,18.4-3.5,17.6,1c-0.7,4,4.7,6.6,12.7,6.3c7.8-0.3,12.3-2.9,10.3-6c-1.9-3-0.1-5.6,4-5.7
		c11.3-0.4,70,22.6,78.7,29.6c4.4,3.5,7.5,3.7,7.4,0.5c-0.2-5-24.5-17.9-60.6-32.2c-11.7-4.6-10.5-5,7.9-2.7c11.9,1.5,25,6,29.1,9.9
		c4.2,4,10.1,7.1,13.2,7c3.1-0.1,17.9,9.7,33.1,21.8c15.1,12.1,28.6,20.7,30.1,19.1c3.4-3.8-48.8-47-56.4-46.8
		c-3.1,0.1-8.6-2.6-12.2-6.1c-9.6-9.2-45.3-19.5-65.2-18.8c-9.5,0.3-18.8-1.9-20.8-4.9c-8.5-13.3,71.2,3.4,100.5,21
		c31,18.6,92.2,79.7,92.5,89.9c0.2,6.1-3,4.9-10.9-4.4c-6.1-7.2-13.7-16-16.9-19.6c-3.2-3.6-9.5-4.9-14.1-2.9
		c-5.2,2.3-12.7-5.3-24.7-16.4c-10.6-9.9-19.1-15.3-19-12.1c0.1,3.2,7.7,12.2,16.9,20.1c9.2,7.9,14,19.2,14.1,22.4
		c0.1,3.5,4.8,4.2,11.3,1.8c8.5-3.1,16.2,1,32.5,17.6c11.8,12,22.8,20.2,24.5,18.3c1.7-1.9,0.3-6.6-3-10.5
		c-3.4-3.9-5.1-10.4-3.8-14.4c1.4-4.4,5.2-1.2,9.7,7.8c4.1,8.3,9.1,15.1,11.1,15c2-0.1,11.8,10.9,21.9,24.4
		c10.1,13.5,16.6,24.6,14.6,24.7c-4.3,0.2-22.2-18.6-34.5-36.4c-4.7-6.7-10.6-10.7-13.3-8.9s1,10.8,8,19.8
		c25.8,33.1,28.3,37.2,23.2,37.4c-2.8,0.1-13-10.2-22.5-23c-19.2-25.7-37.4-44.7-57.9-60.7l-13.6-10.6l13.6,14.8
		c7.5,8.2,12,16.6,10.1,18.7c-1.9,2.1-16.4-9.9-32.2-26.8c-43.8-46.9-75.2-68.6-81.3-50.1c-1.7,5.3-0.3,8.5,3.7,7.8
		c3.7-0.6,10.5-1,15.1-0.8c11.5,0.4,55.3,42.1,54.1,50.3c-0.5,3.6-17.6,11-14.9,18.3c8.2,22.6,9.1,25-8.8,4.9
		c-45-46,54.4,7.3-3.8-50c-23.5-18-32.3-21.1-32-11c0.1,3.3-5.2,2.3-12-2.3c-6.8-4.5-24.5-9.4-39.5-10.9c-19.7-1.9-24.3-3.8-16.7-7
		c5.8-2.4,17.8-2.5,26.8-0.2c11.9,3,18.3,1.8,24-4.5c4.7-5.2,5.4-8.6,1.7-8.4c-3.4,0.1-7,3.1-8,6.7c-1.4,4.9-4.8,5-13.6,0.5
		c-6.5-3.3-20.4-5.6-31-5.2c-10.6,0.4-19.3-1.7-19.5-4.9c-0.1-3.1-5.9-2-8.7-1.9c-12.2-2.8-27.9,7.5-13.7,7.1c3.9-0.1-0.1,4.9,4.2,9
		c6.6,6.3,5.4,8-8.2,11.4c-16.4,4.1-49.8,27.6-56.9,39.8c-2.2,3.8-6.8,10.4-10.3,14.6c-7.1,8.6-19.1,31.3-19,35.8
		c0,1.6,2.5,2.8,5.5,2.6c3-0.1,5.3-3.4,5.2-7.3c-0.4-12.8,46.4-63.7,67.4-73.6c26.9-12.7,97.2-12.6,78.9,0.1
		c-3.5,2.4-13.7,2.6-22.6,0.3c-39.5-10.1-90.6,22.1-112.7,70.4c-5.1,11.1-10.4,15.3-17.4,13.7c-7.3-1.7-11.4,2-14.8,12.9
		c-2.6,8.3-6.9,20.3-9.5,26.6C152.5,404.1,152.1,402.9,154.3,389.5L154.3,389.5z M248.2,232.4c16.3-14,4.5-9.9-18.5,6.3
		c-11.5,8.2-26.2,17.1-29.2,17.2s-5.4,3.9-5.2,8.5C195.5,272.4,217.1,259.1,248.2,232.4z M168.5,386.2c3.1-9.4,9.5-24.6,11.8-24.7
		c5.6-0.2,3.3,9.7-3.5,26.9C168.7,408.7,161.7,406.9,168.5,386.2L168.5,386.2z M50.1,383.7c1.6-4.7,6.5-8.7,11-8.9
		c6.7-0.3,7,1.3,1.7,8.3c-3.5,4.8-8.5,8.7-11,8.9S48.6,388.4,50.1,383.7z M92.9,368.3c2.7-19.1,10.7-39.8,17.6-45.7
		c1.9-1.6,3.8-5.5,4.2-8.6c0.4-3.1,7.2-18.6,14.1-32.7c9.1-18.8,22.7-33.2,50.9-53.9c21.2-15.5,44.8-30.4,49.1-30.6
		c7.4-0.2-9.3,12.7-32.2,24.8c-5.9,3.1-21.4,16.2-34.5,29.1c-21.9,21.5-32,40.2-66,122.8C90.6,386.8,90.3,386.4,92.9,368.3
		L92.9,368.3z M103.6,379.2c-1.8-2.8-0.9-6.8,2.1-8.8c3-2.1,5.5,0.2,5.7,5C111.7,385.3,108.5,386.9,103.6,379.2z M434.4,360.9
		c-4.9-12-4.2-42,2.6-31.8c6.8,10.2,12.1,40.4,5.9,40.7C440.3,369.8,436.4,365.8,434.4,360.9z M73.3,370.6
		c-0.1-2.9,3.2-10.3,7.4-16.4c6.4-9.4,7.7-9.7,8-2.1c0.3,5-3.1,12.4-7.4,16.4C77,372.5,73.4,373.5,73.3,370.6z M45.6,350.1
		c-0.3-10,13.4-40.3,23.9-52.9c3.6-4.3,6.4-11.2,6.3-15.5c-0.2-4.2,3.9-10.3,9-13.6c5.1-3.2,7.7-7.4,5.7-9.2
		c-5.1-4.9-29.1,23.3-26.4,30.9c1.3,3.5-1.6,6.5-6.3,6.7s-8.5,2.8-8.4,5.9c0.1,3.1-2.5,5.7-5.9,5.8c-9,0.3,18.4-38.6,53-75.4
		c30.6-32.5,36.3-41.6,25.6-41.1c-3.1,0.1-35.6,39.1-40,44.5c-19,23.4-33,36-38,34.2c-6.6-2.3-6.4-3.7,0.9-8.4
		c4.9-3.1,23.6-22.2,41.7-42.5c23.5-26.4,35.5-36.7,39.8-32.5c4.3,4.2,8.5,3.1,14.6-3.7c9.6-10.7,13.1-12,13.3-4.8
		c0.2,5.1-30.4,39.5-53.1,59.4c-7.2,6.4-11.4,13.3-9.2,15.4c4.9,4.8,57.3-46.1,57.3-55.7c0-3.8,5.7-7.2,12.7-7.5
		c15.7-0.6,50.1-20.2,46.3-26.1c-2.6-4,25.4-15.2,55.3-22.1c7-1.6,14.3-4.7,16-6.8c1.7-2.1-4.8-2-14.5,0.3
		c-12.3,2.9-16.7,2.3-14.2-2.1c6.3-11.4,113.2,0.1,167.9,18.1c9,3,29.6,13.6,45.7,23.6C493,190.3,435.9,130.9,352,125
		c-26.3-4.7-40.6-9.1-31.7-9.7c8.9-0.6,32.2,2.1,51.6,6c19.5,3.9,38.4,7.3,42.2,7.6c3.7,0.3,6.8,2.6,7,5.2c0.1,2.6,3.2,4.6,6.9,4.4
		c13.2-0.5,26.3,15.5,33.7,7.2c2.4-2.7,4-5.4-8.1-10.4c-12.1-5-22.1-11-22.1-13.4c-0.1-2.4,12.2,1.2,27.3,8s27.6,14.9,27.7,18.1
		c0.1,3.1-2.1,4.3-5,2.7s-6.6-0.4-8.3,2.8c-1.7,3.2-1,5.7,1.7,5.6c6.8-0.3,38.4,32.9,38.6,39.2c0,0.3-29.6-0.7-38.8-7.2
		c-35.8-25.3-104.2-48-152.7-50.8c-13.9-0.8-27.8-2.9-30.8-4.7c-3.1-1.8-5.5-0.6-5.4,2.6c0.1,3.3-3.5,6.1-7.9,6.3
		c-4.5,0.2-8,2.8-7.9,5.9c0.2,6.5,1.2,6.5,30.6-0.6c18.1-4.4,21.8-3.9,19.7,2.5c-1.4,4.3-6.6,7.7-11.5,7.4
		c-28.3-1.7-49.3,2.9-49.1,10.8c0.3,10.8-7.3,11-16.4,0.4c-5.2-6-8.8-6.6-12.9-2.1c-4.1,4.5-3.4,7.6,2.3,11c6.1,3.6,4.2,5.7-7.8,9.2
		C189.8,199,101.7,276.2,92.2,305.1c-6.8,20.5-4.4,28.3,3.7,12.3c8.8-17.4,10.1-12,2.1,8.2c-4.3,10.7-7.1,12.8-10.6,7.7
		c-3.7-5.6-5.7-5.2-9.6,1.5c-2.6,4.6-6.6,6.8-8.7,4.7c-2.1-2.1-0.9-7.7,2.6-12.5c3.6-4.9,5-8.7,3.3-8.7c-1.8,0.1,0.7-5.6,5.7-12.5
		c14.6-20.5,69.9-83,70-79.1c0.1,2,3.1,0.8,6.7-2.6c15.9-14.9,50.1-37.8,57.3-38.1c7.8-0.3,11.2-11.6,3.4-11.4
		c-11.9,0.2-77.1,45-98.9,67.7C89.7,269.8,53.1,335,62.6,347.8c0.2,4.4-13.8,18.6-16.7,20.7C43,370.5,45.7,355.2,45.6,350.1
		L45.6,350.1z M259.4,156.2c6.2-4.5,4.7-5.6-7-5.2c-8.2,0.3-14.8,3-14.7,6.1C238,164.2,249.1,163.7,259.4,156.2z M542.3,326.1
		c-5.4-5.7-8.6-10.4-7.1-10.4c1.5-0.1-7.5-9-20-19.9c-12.5-10.9-30.4-31.3-43.2-42.7s-39.4-30.1-59.1-41.4
		c-37.8-21.8-39.6-28.7-2.7-10.5c39.4,19.5,46.4,24,43,27.9c-1.9,2.1-1.1,3.7,1.8,3.7c2.9-0.1,7.5-2.8,10.4-5.9
		c3.4-3.8,15.5,1.6,35.5,16c16.7,12,28.4,26.2,29.4,28.9c1.1,2.8,4.2,3.5,6.8,1.7c2.6-1.9,5,2.3,5.2,9.1l0.4,12.5l-15-13
		c-8.2-7.1-22.2-24.2-34.3-35.1c-12.2-11-14.6-9.2-17.1-7.5c-3.8,2.6,19.9,33.1,26,32.9c1.2,0,11.3,9.5,22.5,21.3
		c11.2,11.8,21.8,20.4,23.5,19.2c1.7-1.2,3.7,3.9,4.3,11.3c0.7,7.4,0.9,13.2,0.4,13C552.5,336.7,547.8,331.9,542.3,326.1
		L542.3,326.1z M284.2,250.6c-0.1-3.1,2.3-5.7,5.2-5.8c3-0.1,5.5,2.3,5.6,5.4c0.1,3.1-2.3,5.7-5.2,5.8
		C286.8,256.1,284.3,253.7,284.2,250.6z M510.4,236.8c-7.3-5.4-30.5-20.9-51.6-34.4c-21.1-13.5-34.9-24.5-30.6-24.7
		c4.3-0.1,23.9,10.3,43.6,23c37,26.1,32.8,13.3,35,13c1.2-0.2,5.8-1.5,17.7,23.1C529.9,249.1,526.9,249.1,510.4,236.8L510.4,236.8z
		 M47.5,243.4c-0.4-7.3,35.7-49.8,60.5-70.9c17.4-14.8,23.7-26.1,14.3-25.5c-2.2,0.2-18.9,16-36,33.6s-31.9,31-33.1,29.9
		c-3.9-3.8,37.4-51.1,44.9-51.5c4.2-0.2,6.1-2.6,4.3-5.4c-1.8-2.8,1.6-6.9,7.5-9.1c5.9-2.2,10.7-6.4,10.6-9.2
		c-0.1-2.9,3.1-5.4,7-5.5s19-7.3,33.3-15.8c15-8.9,23.1-16.2,15.2-14.1c-27.5,7.4-65.3,31.8-87.4,54.9c-55.7,58.1-6.4-4.4-6.5-5.6
		c-0.1-3.1-3-3.8-6.3-1.5c-3.8,2.6-4.7,1.7-2.4-2.4c2-3.7,9.3-8.2,15-8.4c5.8-0.2,10.4-2.7,10.3-5.5c-0.2-4.3,49.1-29,84-41.7
		c5.2-1.9,9.2-7.9,8.9-13.4c-0.3-8.1-1.3-8.4-5-1.8c-2.5,4.5-13,11.5-20,12.8c-6.9,1.4-27.7,10.5-46.2,20.4
		c-18.5,9.8-32.9,15.4-32.1,12.3c0.9-3.1,3.5-5,5.9-4.3c2.4,0.7,6.3-2.4,8.7-6.8c4.9-9,53.4-32.7,68.7-33.3c5.4-0.2,8.2-2.8,6.4-5.7
		c-1.9-2.9,3.2-7.3,11.3-9.7c9.3-2.8,15.5-2.1,17,2c2.4,6.7,35.1,42.3,34.4,21.9c-0.1-3.1,5.3-4.5,12.1-3.1
		c6.8,1.5,21.9-0.3,33.7-3.9l21.4-6.5l-28.3,3c-25.9,2.7-38.1-2-21.9-8.4c3.7-1.5,0.6-1.4-6.8,0.3c-9.8,2.1-29.4-5.3-25.2-10
		c0.8-0.9,64.2-6.8,67.6-6.9c3.4-0.1,7.7,3.5,9.5,8s5.7,6.6,8.7,4.6c3.3-2.3,2.4-5.4-2.2-8.3c-12.5-7.7,45.6,2.8,93.3,16.7
		c1.5,0.4,12.6,5,24.7,10.1C461.9,94,441,95.3,403.1,81c-39.8-15-51.1-21.7-89.1-4.1c34.9-2.1,68.4,1.9,100.2,17.1
		c12,5.8,25.7,10.4,30.5,10.2c4.7-0.2,7.2,2.2,5.5,5.4c-2,3.6-9.4,2.6-20-2.5c-12.1-5.9-18.4-6.4-22.5-1.9c-4.1,4.5-3.2,6.2,3.2,5.9
		c4.9-0.2,10.6,2.4,12.8,5.7c2.5,3.9,0.3,5.1-6.3,3.3c-47-12.8-100.6-17.5-148.2-13.1c-45.8,4.2-49.9,3.8-40.7-4
		c9.7-8.3,9.4-8.6-4.4-5.5c-8,1.7-13.4,1-11.9-1.7c1.5-2.7-2.3-4.7-8.4-4.5c-6.1,0.2-11,3.1-11,6.4c0.1,3.3,2.6,4.2,5.6,2.2
		c3-2.1,4.9-0.4,4.2,3.7c-0.7,4.1,2,6.6,5.9,5.7c3.9-1,5.7,0.8,3.9,4c-1.8,3.2-6.8,6-11,6.2s-7.7,3-7.6,6.3c0.1,3.3-2.3,4.5-5.4,2.6
		c-3.1-1.8-14.6,4.3-22.2,11c-7.6,6.7-16.8,12.2-20.5,12.4c-3.7,0.2-9.6,4.2-13.2,8.9c-9.4,12.6,0,10,24.1-6.7
		c24-16.6,33.6-19.2,24.2-6.4c-22.7,30.5-26.5,12.6-35.7,22.3c-10.4,10.8-13.2,11.7-17.5,5c-18,6.7-17.1,3.1-56.8,48.4
		c-12.4,14.4-22.8,23.5-23,20.2L47.5,243.4z M195,110c-9.6-2.9-71.1,32.7-65.6,37.9c1.7,1.6,17.8-5.4,35.7-15.5
		C183.1,122.2,198,110.9,195,110z M403.6,100.2c-0.1-2.6-8.1-6.4-17.9-8.4c-9.7-2-21.4-4.3-25.9-5.3c-16.9-3.6-103.6,2.5-112,7.8
		c-5.9,3.8,5,4.9,34.2,3.5c52.1-2.4,104,1.8,108.6,8.8C394.4,112.5,403.9,107.7,403.6,100.2z M448.2,214.3
		c-30.8-17.7-49.1-30-44.9-30.1c8.3-0.3,63.6,27.7,63.8,32.3C467.3,222.5,461.2,221.8,448.2,214.3L448.2,214.3z M223.5,216.5
		c3.5-4.8,8.9-8.8,11.8-8.9c3-0.1,2.6,3.6-1,8.4c-3.5,4.8-8.9,8.8-11.8,8.9C219.4,225.1,219.9,221.3,223.5,216.5L223.5,216.5z
		 M271.6,198.5c0-1.2,6-3.6,13.4-5.4c7.4-1.7,13.5-1,13.6,1.6c0.1,2.6-5.9,5-13.4,5.4C277.8,200.4,271.7,199.7,271.6,198.5z
		 M403.8,173.3c-5.8-1.9-8.2-5.1-5.4-7.1c5.4-3.8,22.7,3.8,18.4,8.2C415.4,175.7,409.6,175.2,403.8,173.3L403.8,173.3z M186.9,159.9
		c5.4-11.5,28.2-24.9,35.7-20.6c2.5,1.4,5.7-2.8,7.1-9.4c1.4-6.5,2.9-12,3.3-12.2c0.4-0.2,14.4-2.2,31.1-4.5
		c19.5-2.7,31.8-2,34.3,1.9c2.7,4.2-0.9,5.4-11.5,3.8c-21.3-3.2-50.4,4.3-50.1,12.9c0.3,8.7-13.2,16.4-35.7,20.2
		c-3.6,0.6-5.2,4.4-3.5,8.5c1.7,4.1-3.4,9.7-7.8,9.9C183.7,170.6,183,168.2,186.9,159.9L186.9,159.9z M454.4,117.2
		c1.7-1.9,6.4-2.3,10.3-0.9c4.4,1.6,3.1,3-3.1,3.5C455.9,120.3,452.6,119.1,454.4,117.2L454.4,117.2z M396.8,58.4
		c-7.6-4.1-20.5-7.3-28.7-7.1c-8.2,0.2-15-2.4-15.1-5.9c-0.1-3.7-5.8-4.9-13.7-3c-7.5,1.8-14.6,1.5-16-0.5c-1.4-2.1-19-2.5-39.1-0.9
		c-21.2,1.7-46.8,3-40.7,0.3c5.8-2.6,50.3-8.2,81.1-9.8c46.7-2.4,55.1-1.6,50.2,4.9c-4.7,6.3-1.8,8.5,14.7,11.5
		c11.3,2,22.1,3.2,24.1,2.7c1.9-0.5,5,2.8,6.8,7.2C424.6,67.8,414.8,68.1,396.8,58.4z M140,71c-0.1-1.9,6-6.3,13.6-9.5
		c8.3-3.7,14.9-10.6,12.4-14.5c-2.3-3.5-1.7-5,1-3.3c28.5,3.1,76.5-37.4,83.1-23.2c7.5,7.2,5.4,8.3-53.7,30.6
		c-19.1,7.2-41.7,17.1-46.9,19.4C144.3,72.7,140.1,72.9,140,71L140,71z M256.3,21.3c-1.1-10.3,0.9-11.4,16.2-9
		c44.3,7.1,61.5,6.1,55-4.1c-1.7-2.7,0.4-8.2,1.9-8.2c1.6-0.1,13.7,6.5,17,12.3c5.6,10,3.8,10.7-32.2,12.2c-21,0.9-42.3,3.2-47.4,5
		C260.2,32.1,257.2,29.7,256.3,21.3L256.3,21.3z"/>
</g>
</svg>
